<svg id="visual" viewBox="0 0 1920 1080" width="1920" height="1080" xmlns="http://www.w3.org/2000/svg" xmlns:xlink="http://www.w3.org/1999/xlink" version="1.1"><rect x="0" y="0" width="1920" height="1080" fill="#001220"></rect><g fill="#6600FF"><circle r="129" cx="117" cy="731"></circle><circle r="33" cx="278" cy="57"></circle><circle r="115" cx="1859" cy="116"></circle><circle r="83" cx="734" cy="543"></circle><circle r="86" cx="1089" cy="642"></circle><circle r="70" cx="1513" cy="854"></circle><circle r="102" cx="993" cy="124"></circle><circle r="32" cx="393" cy="1024"></circle><circle r="88" cx="1837" cy="466"></circle><circle r="112" cx="33" cy="240"></circle><circle r="63" cx="277" cy="515"></circle><circle r="92" cx="1838" cy="906"></circle><circle r="124" cx="814" cy="995"></circle><circle r="85" cx="1279" cy="404"></circle><circle r="80" cx="1522" cy="254"></circle><circle r="121" cx="1257" cy="885"></circle><circle r="96" cx="1289" cy="54"></circle><circle r="126" cx="578" cy="777"></circle><circle r="35" cx="72" cy="1077"></circle><circle r="91" cx="448" cy="256"></circle><circle r="41" cx="687" cy="22"></circle><circle r="74" cx="1511" cy="527"></circle><circle r="75" cx="971" cy="406"></circle></g></svg>